<mxfile host="Electron" agent="Mozilla/5.0 (Windows NT 10.0; Win64; x64) AppleWebKit/537.36 (KHTML, like Gecko) draw.io/27.0.9 Chrome/134.0.6998.205 Electron/35.4.0 Safari/537.36" version="27.0.9">
  <diagram name="Page-1" id="EKOU2MQSkYAtQ5LeLTIu">
    <mxGraphModel dx="1245" dy="596" grid="1" gridSize="10" guides="1" tooltips="1" connect="1" arrows="1" fold="1" page="1" pageScale="1" pageWidth="850" pageHeight="1100" math="0" shadow="0">
      <root>
        <mxCell id="0" />
        <mxCell id="1" parent="0" />
        <mxCell id="IUPa9NCcYx6ynx-QCjCI-3" style="edgeStyle=orthogonalEdgeStyle;rounded=0;orthogonalLoop=1;jettySize=auto;html=1;entryX=0;entryY=0.5;entryDx=0;entryDy=0;" parent="1" source="IUPa9NCcYx6ynx-QCjCI-1" target="IUPa9NCcYx6ynx-QCjCI-2" edge="1">
          <mxGeometry relative="1" as="geometry" />
        </mxCell>
        <mxCell id="IUPa9NCcYx6ynx-QCjCI-1" value="Actor" style="shape=umlActor;verticalLabelPosition=bottom;verticalAlign=top;html=1;outlineConnect=0;" parent="1" vertex="1">
          <mxGeometry x="190" y="130" width="30" height="60" as="geometry" />
        </mxCell>
        <mxCell id="IUPa9NCcYx6ynx-QCjCI-2" value="Common Workbook" style="ellipse;whiteSpace=wrap;html=1;aspect=fixed;" parent="1" vertex="1">
          <mxGeometry x="370" y="120" width="80" height="80" as="geometry" />
        </mxCell>
        <mxCell id="IUPa9NCcYx6ynx-QCjCI-5" value="Shifts (Mor/Afternoon)" style="text;html=1;align=center;verticalAlign=middle;whiteSpace=wrap;rounded=0;" parent="1" vertex="1">
          <mxGeometry x="90" y="130" width="60" height="30" as="geometry" />
        </mxCell>
        <mxCell id="IUPa9NCcYx6ynx-QCjCI-6" value="Mumbai" style="text;html=1;align=center;verticalAlign=middle;whiteSpace=wrap;rounded=0;" parent="1" vertex="1">
          <mxGeometry x="160" y="80" width="60" height="30" as="geometry" />
        </mxCell>
        <mxCell id="IUPa9NCcYx6ynx-QCjCI-7" style="edgeStyle=orthogonalEdgeStyle;rounded=0;orthogonalLoop=1;jettySize=auto;html=1;entryX=0;entryY=0.5;entryDx=0;entryDy=0;" parent="1" source="IUPa9NCcYx6ynx-QCjCI-8" target="IUPa9NCcYx6ynx-QCjCI-10" edge="1">
          <mxGeometry relative="1" as="geometry" />
        </mxCell>
        <mxCell id="IUPa9NCcYx6ynx-QCjCI-8" value="Actor" style="shape=umlActor;verticalLabelPosition=bottom;verticalAlign=top;html=1;outlineConnect=0;" parent="1" vertex="1">
          <mxGeometry x="285" y="320" width="30" height="60" as="geometry" />
        </mxCell>
        <mxCell id="IUPa9NCcYx6ynx-QCjCI-9" value="Delhi" style="text;html=1;align=center;verticalAlign=middle;whiteSpace=wrap;rounded=0;" parent="1" vertex="1">
          <mxGeometry x="210" y="270" width="60" height="30" as="geometry" />
        </mxCell>
        <mxCell id="IUPa9NCcYx6ynx-QCjCI-10" value="Digital&lt;br&gt;Workbook" style="ellipse;whiteSpace=wrap;html=1;aspect=fixed;" parent="1" vertex="1">
          <mxGeometry x="455" y="310" width="80" height="80" as="geometry" />
        </mxCell>
        <mxCell id="IUPa9NCcYx6ynx-QCjCI-11" value="Microchips" style="text;html=1;align=center;verticalAlign=middle;whiteSpace=wrap;rounded=0;" parent="1" vertex="1">
          <mxGeometry x="310" y="240" width="60" height="30" as="geometry" />
        </mxCell>
        <mxCell id="IUPa9NCcYx6ynx-QCjCI-12" value="Deleted the entire of the workbook" style="shape=process;whiteSpace=wrap;html=1;backgroundOutline=1;" parent="1" vertex="1">
          <mxGeometry x="570" y="220" width="120" height="60" as="geometry" />
        </mxCell>
        <mxCell id="IUPa9NCcYx6ynx-QCjCI-13" value="Storing data Globally&lt;div&gt;Manage the data that is stored in them via version control&lt;/div&gt;" style="shape=note;whiteSpace=wrap;html=1;backgroundOutline=1;darkOpacity=0.05;fillColor=#fff2cc;strokeColor=#d6b656;" parent="1" vertex="1">
          <mxGeometry x="565" y="420" width="130" height="110" as="geometry" />
        </mxCell>
        <mxCell id="IUPa9NCcYx6ynx-QCjCI-14" style="edgeStyle=orthogonalEdgeStyle;rounded=0;orthogonalLoop=1;jettySize=auto;html=1;" parent="1" target="IUPa9NCcYx6ynx-QCjCI-16" edge="1">
          <mxGeometry relative="1" as="geometry">
            <mxPoint x="350" y="530" as="sourcePoint" />
          </mxGeometry>
        </mxCell>
        <mxCell id="IUPa9NCcYx6ynx-QCjCI-15" value="CVCS" style="ellipse;whiteSpace=wrap;html=1;aspect=fixed;fillColor=#fff2cc;strokeColor=#d6b656;" parent="1" vertex="1">
          <mxGeometry x="170" y="610" width="80" height="80" as="geometry" />
        </mxCell>
        <mxCell id="IUPa9NCcYx6ynx-QCjCI-16" value="DVCS" style="ellipse;whiteSpace=wrap;html=1;aspect=fixed;fillColor=#fff2cc;strokeColor=#d6b656;" parent="1" vertex="1">
          <mxGeometry x="400" y="610" width="80" height="80" as="geometry" />
        </mxCell>
        <mxCell id="IUPa9NCcYx6ynx-QCjCI-17" style="edgeStyle=orthogonalEdgeStyle;rounded=0;orthogonalLoop=1;jettySize=auto;html=1;entryX=0.622;entryY=-0.009;entryDx=0;entryDy=0;entryPerimeter=0;" parent="1" target="IUPa9NCcYx6ynx-QCjCI-15" edge="1">
          <mxGeometry relative="1" as="geometry">
            <mxPoint x="270" y="530" as="sourcePoint" />
          </mxGeometry>
        </mxCell>
        <mxCell id="IUPa9NCcYx6ynx-QCjCI-18" value="SCM" style="ellipse;whiteSpace=wrap;html=1;aspect=fixed;fillColor=#f8cecc;strokeColor=#b85450;" parent="1" vertex="1">
          <mxGeometry x="270" y="480" width="80" height="80" as="geometry" />
        </mxCell>
        <mxCell id="IUPa9NCcYx6ynx-QCjCI-19" value="Centralized Version Control System" style="text;html=1;align=center;verticalAlign=middle;whiteSpace=wrap;rounded=0;" parent="1" vertex="1">
          <mxGeometry x="100" y="590" width="60" height="30" as="geometry" />
        </mxCell>
        <mxCell id="IUPa9NCcYx6ynx-QCjCI-20" value="Distributed Version Control System" style="text;html=1;align=center;verticalAlign=middle;whiteSpace=wrap;rounded=0;" parent="1" vertex="1">
          <mxGeometry x="540" y="600" width="60" height="30" as="geometry" />
        </mxCell>
        <mxCell id="IUPa9NCcYx6ynx-QCjCI-21" value="Subversion(SVN),&lt;div&gt;Helixcore&lt;/div&gt;" style="text;html=1;align=center;verticalAlign=middle;whiteSpace=wrap;rounded=0;" parent="1" vertex="1">
          <mxGeometry x="190" y="700" width="60" height="30" as="geometry" />
        </mxCell>
        <mxCell id="IUPa9NCcYx6ynx-QCjCI-22" value="Git, Perforce, Mercurial" style="text;html=1;align=center;verticalAlign=middle;whiteSpace=wrap;rounded=0;" parent="1" vertex="1">
          <mxGeometry x="420" y="700" width="60" height="30" as="geometry" />
        </mxCell>
        <mxCell id="IUPa9NCcYx6ynx-QCjCI-23" style="edgeStyle=orthogonalEdgeStyle;rounded=0;orthogonalLoop=1;jettySize=auto;html=1;entryX=0.5;entryY=0;entryDx=0;entryDy=0;" parent="1" source="IUPa9NCcYx6ynx-QCjCI-24" target="IUPa9NCcYx6ynx-QCjCI-25" edge="1">
          <mxGeometry relative="1" as="geometry" />
        </mxCell>
        <mxCell id="IUPa9NCcYx6ynx-QCjCI-24" value="" style="ellipse;whiteSpace=wrap;html=1;aspect=fixed;" parent="1" vertex="1">
          <mxGeometry x="170" y="780" width="80" height="80" as="geometry" />
        </mxCell>
        <mxCell id="IUPa9NCcYx6ynx-QCjCI-25" value="" style="ellipse;whiteSpace=wrap;html=1;aspect=fixed;" parent="1" vertex="1">
          <mxGeometry x="180" y="960" width="80" height="80" as="geometry" />
        </mxCell>
        <mxCell id="IUPa9NCcYx6ynx-QCjCI-26" value="Client side" style="text;html=1;align=center;verticalAlign=middle;whiteSpace=wrap;rounded=0;" parent="1" vertex="1">
          <mxGeometry x="85" y="1000" width="60" height="30" as="geometry" />
        </mxCell>
        <mxCell id="IUPa9NCcYx6ynx-QCjCI-27" value="Server side" style="text;html=1;align=center;verticalAlign=middle;whiteSpace=wrap;rounded=0;" parent="1" vertex="1">
          <mxGeometry x="85" y="800" width="60" height="30" as="geometry" />
        </mxCell>
        <mxCell id="IUPa9NCcYx6ynx-QCjCI-28" value="Git" style="text;html=1;align=center;verticalAlign=middle;whiteSpace=wrap;rounded=0;" parent="1" vertex="1">
          <mxGeometry x="245" y="890" width="60" height="30" as="geometry" />
        </mxCell>
        <mxCell id="IUPa9NCcYx6ynx-QCjCI-29" value="Github" style="text;html=1;align=center;verticalAlign=middle;whiteSpace=wrap;rounded=0;" parent="1" vertex="1">
          <mxGeometry x="295" y="810" width="60" height="30" as="geometry" />
        </mxCell>
        <mxCell id="IUPa9NCcYx6ynx-QCjCI-30" value="Remote" style="text;html=1;align=center;verticalAlign=middle;whiteSpace=wrap;rounded=0;" parent="1" vertex="1">
          <mxGeometry x="290" y="780" width="60" height="30" as="geometry" />
        </mxCell>
        <mxCell id="IUPa9NCcYx6ynx-QCjCI-31" value="Linux Foundation" style="text;html=1;align=center;verticalAlign=middle;whiteSpace=wrap;rounded=0;" parent="1" vertex="1">
          <mxGeometry x="260" y="920" width="60" height="30" as="geometry" />
        </mxCell>
        <mxCell id="IUPa9NCcYx6ynx-QCjCI-32" value="Netflix 1.0" style="ellipse;shape=cloud;whiteSpace=wrap;html=1;" parent="1" vertex="1">
          <mxGeometry x="560" y="895" width="120" height="80" as="geometry" />
        </mxCell>
        <mxCell id="IUPa9NCcYx6ynx-QCjCI-33" value="" style="edgeStyle=orthogonalEdgeStyle;rounded=0;orthogonalLoop=1;jettySize=auto;html=1;" parent="1" source="IUPa9NCcYx6ynx-QCjCI-34" target="IUPa9NCcYx6ynx-QCjCI-36" edge="1">
          <mxGeometry relative="1" as="geometry" />
        </mxCell>
        <mxCell id="IUPa9NCcYx6ynx-QCjCI-34" value="Organization" style="ellipse;whiteSpace=wrap;html=1;aspect=fixed;fillColor=#f8cecc;strokeColor=#b85450;" parent="1" vertex="1">
          <mxGeometry x="450" y="760" width="80" height="80" as="geometry" />
        </mxCell>
        <mxCell id="IUPa9NCcYx6ynx-QCjCI-35" value="" style="edgeStyle=orthogonalEdgeStyle;rounded=0;orthogonalLoop=1;jettySize=auto;html=1;" parent="1" source="IUPa9NCcYx6ynx-QCjCI-36" edge="1">
          <mxGeometry relative="1" as="geometry">
            <mxPoint x="460" y="1005" as="targetPoint" />
          </mxGeometry>
        </mxCell>
        <mxCell id="IUPa9NCcYx6ynx-QCjCI-36" value="Repositories" style="ellipse;whiteSpace=wrap;html=1;aspect=fixed;fillColor=#fff2cc;strokeColor=#d6b656;" parent="1" vertex="1">
          <mxGeometry x="450" y="885" width="80" height="80" as="geometry" />
        </mxCell>
        <mxCell id="IUPa9NCcYx6ynx-QCjCI-37" value="" style="edgeStyle=orthogonalEdgeStyle;rounded=0;orthogonalLoop=1;jettySize=auto;html=1;" parent="1" target="IUPa9NCcYx6ynx-QCjCI-38" edge="1">
          <mxGeometry relative="1" as="geometry">
            <mxPoint x="500" y="1045" as="sourcePoint" />
          </mxGeometry>
        </mxCell>
        <mxCell id="IUPa9NCcYx6ynx-QCjCI-38" value="Tags" style="ellipse;whiteSpace=wrap;html=1;aspect=fixed;fillColor=#e1d5e7;strokeColor=#9673a6;" parent="1" vertex="1">
          <mxGeometry x="585" y="1005" width="80" height="80" as="geometry" />
        </mxCell>
        <mxCell id="IUPa9NCcYx6ynx-QCjCI-39" value="Immutable data of branches" style="text;html=1;align=center;verticalAlign=middle;whiteSpace=wrap;rounded=0;" parent="1" vertex="1">
          <mxGeometry x="595" y="1105" width="60" height="30" as="geometry" />
        </mxCell>
        <mxCell id="IUPa9NCcYx6ynx-QCjCI-40" value="Mutable Data" style="text;html=1;align=center;verticalAlign=middle;whiteSpace=wrap;rounded=0;" parent="1" vertex="1">
          <mxGeometry x="435" y="1095" width="60" height="30" as="geometry" />
        </mxCell>
        <mxCell id="IUPa9NCcYx6ynx-QCjCI-41" value="Branches" style="ellipse;whiteSpace=wrap;html=1;aspect=fixed;fillColor=#d5e8d4;strokeColor=#82b366;" parent="1" vertex="1">
          <mxGeometry x="425" y="1010" width="80" height="80" as="geometry" />
        </mxCell>
        <mxCell id="IUPa9NCcYx6ynx-QCjCI-42" value="April" style="text;html=1;align=center;verticalAlign=middle;whiteSpace=wrap;rounded=0;" parent="1" vertex="1">
          <mxGeometry x="600" y="871" width="60" height="30" as="geometry" />
        </mxCell>
        <mxCell id="IUPa9NCcYx6ynx-QCjCI-45" style="edgeStyle=orthogonalEdgeStyle;rounded=0;orthogonalLoop=1;jettySize=auto;html=1;entryX=0.75;entryY=0;entryDx=0;entryDy=0;" parent="1" source="IUPa9NCcYx6ynx-QCjCI-43" target="IUPa9NCcYx6ynx-QCjCI-44" edge="1">
          <mxGeometry relative="1" as="geometry" />
        </mxCell>
        <mxCell id="IUPa9NCcYx6ynx-QCjCI-43" value="main" style="text;html=1;align=center;verticalAlign=middle;whiteSpace=wrap;rounded=0;" parent="1" vertex="1">
          <mxGeometry x="690" y="930" width="60" height="30" as="geometry" />
        </mxCell>
        <mxCell id="IUPa9NCcYx6ynx-QCjCI-44" value="test-feature" style="rounded=1;whiteSpace=wrap;html=1;" parent="1" vertex="1">
          <mxGeometry x="695" y="980" width="120" height="60" as="geometry" />
        </mxCell>
        <mxCell id="IUPa9NCcYx6ynx-QCjCI-46" value="" style="edgeStyle=orthogonalEdgeStyle;rounded=0;orthogonalLoop=1;jettySize=auto;html=1;" parent="1" source="IUPa9NCcYx6ynx-QCjCI-47" target="IUPa9NCcYx6ynx-QCjCI-49" edge="1">
          <mxGeometry relative="1" as="geometry" />
        </mxCell>
        <mxCell id="IUPa9NCcYx6ynx-QCjCI-47" value="Working dir" style="ellipse;whiteSpace=wrap;html=1;aspect=fixed;fillColor=#fff2cc;strokeColor=#d6b656;" parent="1" vertex="1">
          <mxGeometry x="125" y="1280" width="80" height="80" as="geometry" />
        </mxCell>
        <mxCell id="IUPa9NCcYx6ynx-QCjCI-48" value="" style="edgeStyle=orthogonalEdgeStyle;rounded=0;orthogonalLoop=1;jettySize=auto;html=1;" parent="1" source="IUPa9NCcYx6ynx-QCjCI-49" target="IUPa9NCcYx6ynx-QCjCI-51" edge="1">
          <mxGeometry relative="1" as="geometry" />
        </mxCell>
        <mxCell id="IUPa9NCcYx6ynx-QCjCI-49" value="Staging Area" style="ellipse;whiteSpace=wrap;html=1;aspect=fixed;fillColor=#fff2cc;strokeColor=#d6b656;" parent="1" vertex="1">
          <mxGeometry x="305" y="1280" width="80" height="80" as="geometry" />
        </mxCell>
        <mxCell id="IUPa9NCcYx6ynx-QCjCI-50" style="edgeStyle=orthogonalEdgeStyle;rounded=0;orthogonalLoop=1;jettySize=auto;html=1;entryX=0;entryY=0.5;entryDx=0;entryDy=0;" parent="1" source="IUPa9NCcYx6ynx-QCjCI-51" target="IUPa9NCcYx6ynx-QCjCI-52" edge="1">
          <mxGeometry relative="1" as="geometry" />
        </mxCell>
        <mxCell id="IUPa9NCcYx6ynx-QCjCI-51" value="Commit" style="ellipse;whiteSpace=wrap;html=1;aspect=fixed;fillColor=#fff2cc;strokeColor=#d6b656;" parent="1" vertex="1">
          <mxGeometry x="470" y="1280" width="80" height="80" as="geometry" />
        </mxCell>
        <mxCell id="IUPa9NCcYx6ynx-QCjCI-52" value="Push" style="ellipse;whiteSpace=wrap;html=1;aspect=fixed;fillColor=#fff2cc;strokeColor=#d6b656;" parent="1" vertex="1">
          <mxGeometry x="655" y="1280" width="80" height="80" as="geometry" />
        </mxCell>
        <mxCell id="IUPa9NCcYx6ynx-QCjCI-53" value="Commit id" style="text;html=1;align=center;verticalAlign=middle;whiteSpace=wrap;rounded=0;" parent="1" vertex="1">
          <mxGeometry x="480" y="1250" width="60" height="30" as="geometry" />
        </mxCell>
        <mxCell id="IUPa9NCcYx6ynx-QCjCI-54" value="Git Lifecycle" style="ellipse;whiteSpace=wrap;html=1;aspect=fixed;fillColor=#f8cecc;strokeColor=#b85450;" parent="1" vertex="1">
          <mxGeometry x="30" y="1190" width="80" height="80" as="geometry" />
        </mxCell>
        <mxCell id="IUPa9NCcYx6ynx-QCjCI-55" value="git add ." style="text;html=1;align=center;verticalAlign=middle;whiteSpace=wrap;rounded=0;" parent="1" vertex="1">
          <mxGeometry x="230" y="1280" width="60" height="30" as="geometry" />
        </mxCell>
        <mxCell id="IUPa9NCcYx6ynx-QCjCI-56" value="git commit -m &quot;&quot;" style="text;html=1;align=center;verticalAlign=middle;whiteSpace=wrap;rounded=0;" parent="1" vertex="1">
          <mxGeometry x="390" y="1280" width="60" height="30" as="geometry" />
        </mxCell>
        <mxCell id="IUPa9NCcYx6ynx-QCjCI-57" value="git push" style="text;html=1;align=center;verticalAlign=middle;whiteSpace=wrap;rounded=0;" parent="1" vertex="1">
          <mxGeometry x="578" y="1280" width="60" height="30" as="geometry" />
        </mxCell>
        <mxCell id="IUPa9NCcYx6ynx-QCjCI-58" value="Actor" style="shape=umlActor;verticalLabelPosition=bottom;verticalAlign=top;html=1;outlineConnect=0;" parent="1" vertex="1">
          <mxGeometry x="160" y="1110" width="30" height="60" as="geometry" />
        </mxCell>
        <mxCell id="IUPa9NCcYx6ynx-QCjCI-59" value="Merging strategies" style="rounded=1;whiteSpace=wrap;html=1;fillColor=#f8cecc;strokeColor=#b85450;" parent="1" vertex="1">
          <mxGeometry x="315" y="1520" width="120" height="60" as="geometry" />
        </mxCell>
        <mxCell id="IUPa9NCcYx6ynx-QCjCI-60" value="Git Merge" style="ellipse;whiteSpace=wrap;html=1;aspect=fixed;fillColor=#fff2cc;strokeColor=#d6b656;" parent="1" vertex="1">
          <mxGeometry x="205" y="1600" width="80" height="80" as="geometry" />
        </mxCell>
        <mxCell id="IUPa9NCcYx6ynx-QCjCI-61" value="Rebase" style="ellipse;whiteSpace=wrap;html=1;aspect=fixed;fillColor=#fff2cc;strokeColor=#d6b656;" parent="1" vertex="1">
          <mxGeometry x="480" y="1590" width="80" height="80" as="geometry" />
        </mxCell>
        <mxCell id="IUPa9NCcYx6ynx-QCjCI-62" style="edgeStyle=orthogonalEdgeStyle;rounded=0;orthogonalLoop=1;jettySize=auto;html=1;entryX=0.638;entryY=0.02;entryDx=0;entryDy=0;entryPerimeter=0;" parent="1" source="IUPa9NCcYx6ynx-QCjCI-59" target="IUPa9NCcYx6ynx-QCjCI-60" edge="1">
          <mxGeometry relative="1" as="geometry" />
        </mxCell>
        <mxCell id="IUPa9NCcYx6ynx-QCjCI-63" style="edgeStyle=orthogonalEdgeStyle;rounded=0;orthogonalLoop=1;jettySize=auto;html=1;entryX=0.668;entryY=0.072;entryDx=0;entryDy=0;entryPerimeter=0;" parent="1" source="IUPa9NCcYx6ynx-QCjCI-59" target="IUPa9NCcYx6ynx-QCjCI-61" edge="1">
          <mxGeometry relative="1" as="geometry" />
        </mxCell>
        <mxCell id="IUPa9NCcYx6ynx-QCjCI-64" value="Netflix - live&lt;div&gt;28th Jan (v1)&lt;/div&gt;" style="ellipse;whiteSpace=wrap;html=1;aspect=fixed;" parent="1" vertex="1">
          <mxGeometry x="50" y="1420" width="80" height="80" as="geometry" />
        </mxCell>
        <mxCell id="IUPa9NCcYx6ynx-QCjCI-65" value="28th Feb (v2)" style="ellipse;whiteSpace=wrap;html=1;aspect=fixed;" parent="1" vertex="1">
          <mxGeometry x="190" y="1420" width="80" height="80" as="geometry" />
        </mxCell>
        <mxCell id="IUPa9NCcYx6ynx-QCjCI-66" value="master" style="text;html=1;align=center;verticalAlign=middle;whiteSpace=wrap;rounded=0;" parent="1" vertex="1">
          <mxGeometry x="60" y="1510" width="60" height="30" as="geometry" />
        </mxCell>
        <mxCell id="IUPa9NCcYx6ynx-QCjCI-67" value="develop" style="text;html=1;align=center;verticalAlign=middle;whiteSpace=wrap;rounded=0;" parent="1" vertex="1">
          <mxGeometry x="205" y="1515" width="60" height="30" as="geometry" />
        </mxCell>
        <mxCell id="IUPa9NCcYx6ynx-QCjCI-68" style="edgeStyle=orthogonalEdgeStyle;rounded=0;orthogonalLoop=1;jettySize=auto;html=1;entryX=0;entryY=0;entryDx=0;entryDy=0;" parent="1" target="IUPa9NCcYx6ynx-QCjCI-72" edge="1">
          <mxGeometry relative="1" as="geometry">
            <mxPoint x="523.27" y="1995" as="sourcePoint" />
          </mxGeometry>
        </mxCell>
        <mxCell id="IUPa9NCcYx6ynx-QCjCI-69" style="edgeStyle=orthogonalEdgeStyle;rounded=0;orthogonalLoop=1;jettySize=auto;html=1;entryX=0.5;entryY=0;entryDx=0;entryDy=0;" parent="1" edge="1">
          <mxGeometry relative="1" as="geometry">
            <mxPoint x="563.27" y="1955" as="sourcePoint" />
            <mxPoint x="728.27" y="2035" as="targetPoint" />
          </mxGeometry>
        </mxCell>
        <mxCell id="IUPa9NCcYx6ynx-QCjCI-70" value="b1" style="ellipse;whiteSpace=wrap;html=1;aspect=fixed;" parent="1" vertex="1">
          <mxGeometry x="358.27" y="2035" width="80" height="80" as="geometry" />
        </mxCell>
        <mxCell id="IUPa9NCcYx6ynx-QCjCI-71" style="edgeStyle=orthogonalEdgeStyle;rounded=0;orthogonalLoop=1;jettySize=auto;html=1;entryX=1;entryY=0.5;entryDx=0;entryDy=0;" parent="1" source="IUPa9NCcYx6ynx-QCjCI-72" edge="1">
          <mxGeometry relative="1" as="geometry">
            <mxPoint x="563.27" y="1955" as="targetPoint" />
          </mxGeometry>
        </mxCell>
        <mxCell id="IUPa9NCcYx6ynx-QCjCI-72" value="b2" style="ellipse;whiteSpace=wrap;html=1;aspect=fixed;" parent="1" vertex="1">
          <mxGeometry x="518.27" y="2035" width="80" height="80" as="geometry" />
        </mxCell>
        <mxCell id="IUPa9NCcYx6ynx-QCjCI-73" style="edgeStyle=orthogonalEdgeStyle;rounded=0;orthogonalLoop=1;jettySize=auto;html=1;entryX=0.708;entryY=0.037;entryDx=0;entryDy=0;entryPerimeter=0;" parent="1" target="IUPa9NCcYx6ynx-QCjCI-70" edge="1">
          <mxGeometry relative="1" as="geometry">
            <mxPoint x="483.27" y="1955" as="sourcePoint" />
          </mxGeometry>
        </mxCell>
        <mxCell id="IUPa9NCcYx6ynx-QCjCI-74" style="edgeStyle=orthogonalEdgeStyle;rounded=0;orthogonalLoop=1;jettySize=auto;html=1;entryX=0.076;entryY=0.763;entryDx=0;entryDy=0;entryPerimeter=0;" parent="1" source="IUPa9NCcYx6ynx-QCjCI-70" edge="1">
          <mxGeometry relative="1" as="geometry">
            <mxPoint x="489.27" y="1976" as="targetPoint" />
          </mxGeometry>
        </mxCell>
        <mxCell id="IUPa9NCcYx6ynx-QCjCI-75" value="PR" style="text;html=1;align=center;verticalAlign=middle;whiteSpace=wrap;rounded=0;" parent="1" vertex="1">
          <mxGeometry x="438.27" y="2006" width="60" height="30" as="geometry" />
        </mxCell>
        <mxCell id="IUPa9NCcYx6ynx-QCjCI-76" value="Text" style="text;html=1;align=center;verticalAlign=middle;whiteSpace=wrap;rounded=0;" parent="1" vertex="1">
          <mxGeometry x="593.27" y="1985" width="60" height="30" as="geometry" />
        </mxCell>
        <mxCell id="IUPa9NCcYx6ynx-QCjCI-77" value="branch (netflix 2.0)" style="ellipse;whiteSpace=wrap;html=1;aspect=fixed;" parent="1" vertex="1">
          <mxGeometry x="478.74" y="1915" width="80" height="80" as="geometry" />
        </mxCell>
        <mxCell id="IUPa9NCcYx6ynx-QCjCI-78" value="b3" style="ellipse;whiteSpace=wrap;html=1;aspect=fixed;" parent="1" vertex="1">
          <mxGeometry x="686.27" y="2030" width="80" height="80" as="geometry" />
        </mxCell>
        <mxCell id="IUPa9NCcYx6ynx-QCjCI-79" value="Dev 1" style="text;html=1;align=center;verticalAlign=middle;resizable=0;points=[];autosize=1;strokeColor=none;fillColor=none;" parent="1" vertex="1">
          <mxGeometry x="253.74" y="2073" width="50" height="30" as="geometry" />
        </mxCell>
        <mxCell id="IUPa9NCcYx6ynx-QCjCI-80" value="Dev 2&lt;span style=&quot;color: rgba(0, 0, 0, 0); font-family: monospace; font-size: 0px; text-align: start;&quot;&gt;%3CmxGraphModel%3E%3Croot%3E%3CmxCell%20id%3D%220%22%2F%3E%3CmxCell%20id%3D%221%22%20parent%3D%220%22%2F%3E%3CmxCell%20id%3D%222%22%20value%3D%22Dev%201%22%20style%3D%22text%3Bhtml%3D1%3Balign%3Dcenter%3BverticalAlign%3Dmiddle%3Bresizable%3D0%3Bpoints%3D%5B%5D%3Bautosize%3D1%3BstrokeColor%3Dnone%3BfillColor%3Dnone%3B%22%20vertex%3D%221%22%20parent%3D%221%22%3E%3CmxGeometry%20x%3D%225%22%20y%3D%223078%22%20width%3D%2250%22%20height%3D%2230%22%20as%3D%22geometry%22%2F%3E%3C%2FmxCell%3E%3C%2Froot%3E%3C%2FmxGraphModel%3E&lt;/span&gt;" style="text;html=1;align=center;verticalAlign=middle;resizable=0;points=[];autosize=1;strokeColor=none;fillColor=none;" parent="1" vertex="1">
          <mxGeometry x="491.27" y="2005" width="50" height="30" as="geometry" />
        </mxCell>
        <mxCell id="IUPa9NCcYx6ynx-QCjCI-81" value="Dev 3" style="text;html=1;align=center;verticalAlign=middle;resizable=0;points=[];autosize=1;strokeColor=none;fillColor=none;" parent="1" vertex="1">
          <mxGeometry x="661.27" y="2010" width="50" height="30" as="geometry" />
        </mxCell>
        <mxCell id="IUPa9NCcYx6ynx-QCjCI-82" value="n 2.0 (Dec)" style="ellipse;shape=cloud;whiteSpace=wrap;html=1;" parent="1" vertex="1">
          <mxGeometry x="253.74" y="1935" width="120" height="80" as="geometry" />
        </mxCell>
        <mxCell id="IUPa9NCcYx6ynx-QCjCI-83" style="edgeStyle=orthogonalEdgeStyle;rounded=0;orthogonalLoop=1;jettySize=auto;html=1;entryX=0.5;entryY=0;entryDx=0;entryDy=0;" parent="1" source="IUPa9NCcYx6ynx-QCjCI-84" target="IUPa9NCcYx6ynx-QCjCI-77" edge="1">
          <mxGeometry relative="1" as="geometry" />
        </mxCell>
        <mxCell id="IUPa9NCcYx6ynx-QCjCI-84" value="master branch (netflix 1.0)" style="ellipse;whiteSpace=wrap;html=1;aspect=fixed;" parent="1" vertex="1">
          <mxGeometry x="471.27" y="1800" width="70" height="70" as="geometry" />
        </mxCell>
        <mxCell id="IUPa9NCcYx6ynx-QCjCI-85" value="Actor" style="shape=umlActor;verticalLabelPosition=bottom;verticalAlign=top;html=1;outlineConnect=0;" parent="1" vertex="1">
          <mxGeometry x="150" y="1790" width="30" height="60" as="geometry" />
        </mxCell>
        <mxCell id="IUPa9NCcYx6ynx-QCjCI-86" value="Actor" style="shape=umlActor;verticalLabelPosition=bottom;verticalAlign=top;html=1;outlineConnect=0;" parent="1" vertex="1">
          <mxGeometry x="230" y="1800" width="30" height="60" as="geometry" />
        </mxCell>
        <mxCell id="IUPa9NCcYx6ynx-QCjCI-87" value="Actor" style="shape=umlActor;verticalLabelPosition=bottom;verticalAlign=top;html=1;outlineConnect=0;" parent="1" vertex="1">
          <mxGeometry x="310" y="1800" width="30" height="60" as="geometry" />
        </mxCell>
        <mxCell id="IUPa9NCcYx6ynx-QCjCI-88" value="20th Feb" style="text;html=1;align=center;verticalAlign=middle;whiteSpace=wrap;rounded=0;" parent="1" vertex="1">
          <mxGeometry x="766" y="1905" width="60" height="30" as="geometry" />
        </mxCell>
        <mxCell id="IUPa9NCcYx6ynx-QCjCI-89" value="develop" style="text;html=1;align=center;verticalAlign=middle;whiteSpace=wrap;rounded=0;" parent="1" vertex="1">
          <mxGeometry x="541" y="1890" width="60" height="30" as="geometry" />
        </mxCell>
        <mxCell id="IUPa9NCcYx6ynx-QCjCI-90" value="F" style="ellipse;whiteSpace=wrap;html=1;aspect=fixed;" parent="1" vertex="1">
          <mxGeometry x="300" y="2170" width="80" height="80" as="geometry" />
        </mxCell>
        <mxCell id="IUPa9NCcYx6ynx-QCjCI-91" value="B" style="ellipse;whiteSpace=wrap;html=1;aspect=fixed;" parent="1" vertex="1">
          <mxGeometry x="358.27" y="2280" width="80" height="80" as="geometry" />
        </mxCell>
        <mxCell id="IUPa9NCcYx6ynx-QCjCI-92" value="D" style="ellipse;whiteSpace=wrap;html=1;aspect=fixed;" parent="1" vertex="1">
          <mxGeometry x="238.74" y="2360" width="80" height="80" as="geometry" />
        </mxCell>
        <mxCell id="IUPa9NCcYx6ynx-QCjCI-95" style="edgeStyle=orthogonalEdgeStyle;rounded=0;orthogonalLoop=1;jettySize=auto;html=1;" parent="1" source="IUPa9NCcYx6ynx-QCjCI-93" target="IUPa9NCcYx6ynx-QCjCI-90" edge="1">
          <mxGeometry relative="1" as="geometry" />
        </mxCell>
        <mxCell id="IUPa9NCcYx6ynx-QCjCI-93" value="Workstation/ master machine" style="ellipse;whiteSpace=wrap;html=1;aspect=fixed;" parent="1" vertex="1">
          <mxGeometry x="125" y="2240" width="80" height="80" as="geometry" />
        </mxCell>
        <mxCell id="IUPa9NCcYx6ynx-QCjCI-94" value="Ansible" style="text;html=1;align=center;verticalAlign=middle;whiteSpace=wrap;rounded=0;" parent="1" vertex="1">
          <mxGeometry x="130" y="2200" width="60" height="30" as="geometry" />
        </mxCell>
        <mxCell id="IUPa9NCcYx6ynx-QCjCI-96" style="edgeStyle=orthogonalEdgeStyle;rounded=0;orthogonalLoop=1;jettySize=auto;html=1;entryX=0.055;entryY=0.775;entryDx=0;entryDy=0;entryPerimeter=0;" parent="1" source="IUPa9NCcYx6ynx-QCjCI-93" target="IUPa9NCcYx6ynx-QCjCI-91" edge="1">
          <mxGeometry relative="1" as="geometry" />
        </mxCell>
        <mxCell id="IUPa9NCcYx6ynx-QCjCI-97" style="edgeStyle=orthogonalEdgeStyle;rounded=0;orthogonalLoop=1;jettySize=auto;html=1;entryX=0.016;entryY=0.425;entryDx=0;entryDy=0;entryPerimeter=0;" parent="1" source="IUPa9NCcYx6ynx-QCjCI-93" target="IUPa9NCcYx6ynx-QCjCI-92" edge="1">
          <mxGeometry relative="1" as="geometry" />
        </mxCell>
        <mxCell id="IUPa9NCcYx6ynx-QCjCI-98" value="Slave Machines" style="text;html=1;align=center;verticalAlign=middle;whiteSpace=wrap;rounded=0;" parent="1" vertex="1">
          <mxGeometry x="390" y="2170" width="60" height="30" as="geometry" />
        </mxCell>
        <mxCell id="IUPa9NCcYx6ynx-QCjCI-99" style="edgeStyle=orthogonalEdgeStyle;rounded=0;orthogonalLoop=1;jettySize=auto;html=1;entryX=0.938;entryY=0.375;entryDx=0;entryDy=0;entryPerimeter=0;" parent="1" source="IUPa9NCcYx6ynx-QCjCI-90" target="IUPa9NCcYx6ynx-QCjCI-93" edge="1">
          <mxGeometry relative="1" as="geometry" />
        </mxCell>
        <mxCell id="Axyo4uLZjYybKMO6bc-o-1" value="1Public" style="ellipse;whiteSpace=wrap;html=1;aspect=fixed;" parent="1" vertex="1">
          <mxGeometry x="175" y="2620" width="80" height="80" as="geometry" />
        </mxCell>
        <mxCell id="Axyo4uLZjYybKMO6bc-o-2" value="1 private" style="ellipse;whiteSpace=wrap;html=1;aspect=fixed;" parent="1" vertex="1">
          <mxGeometry x="305" y="2620" width="80" height="80" as="geometry" />
        </mxCell>
        <mxCell id="Axyo4uLZjYybKMO6bc-o-3" value="1 DB" style="ellipse;whiteSpace=wrap;html=1;aspect=fixed;" parent="1" vertex="1">
          <mxGeometry x="425" y="2620" width="80" height="80" as="geometry" />
        </mxCell>
        <mxCell id="Axyo4uLZjYybKMO6bc-o-4" value="Route tables" style="ellipse;whiteSpace=wrap;html=1;aspect=fixed;" parent="1" vertex="1">
          <mxGeometry x="262.5" y="2720" width="80" height="80" as="geometry" />
        </mxCell>
        <mxCell id="Axyo4uLZjYybKMO6bc-o-5" value="Internet Gateway" style="ellipse;whiteSpace=wrap;html=1;aspect=fixed;" parent="1" vertex="1">
          <mxGeometry x="145" y="2830" width="80" height="80" as="geometry" />
        </mxCell>
        <mxCell id="Axyo4uLZjYybKMO6bc-o-6" value="NAT Gateway" style="ellipse;whiteSpace=wrap;html=1;aspect=fixed;" parent="1" vertex="1">
          <mxGeometry x="295" y="2830" width="80" height="80" as="geometry" />
        </mxCell>
        <mxCell id="Axyo4uLZjYybKMO6bc-o-7" value="VPC" style="ellipse;whiteSpace=wrap;html=1;aspect=fixed;" parent="1" vertex="1">
          <mxGeometry x="335" y="2520" width="80" height="80" as="geometry" />
        </mxCell>
        <mxCell id="Axyo4uLZjYybKMO6bc-o-8" value="ips --&amp;gt; 900" style="text;html=1;align=center;verticalAlign=middle;whiteSpace=wrap;rounded=0;" parent="1" vertex="1">
          <mxGeometry x="425" y="2520" width="60" height="30" as="geometry" />
        </mxCell>
        <mxCell id="Axyo4uLZjYybKMO6bc-o-9" value="300" style="text;html=1;align=center;verticalAlign=middle;whiteSpace=wrap;rounded=0;" parent="1" vertex="1">
          <mxGeometry x="160" y="2600" width="60" height="30" as="geometry" />
        </mxCell>
        <mxCell id="Axyo4uLZjYybKMO6bc-o-10" value="300" style="text;html=1;align=center;verticalAlign=middle;whiteSpace=wrap;rounded=0;" parent="1" vertex="1">
          <mxGeometry x="295" y="2600" width="60" height="30" as="geometry" />
        </mxCell>
        <mxCell id="Axyo4uLZjYybKMO6bc-o-11" value="300" style="text;html=1;align=center;verticalAlign=middle;whiteSpace=wrap;rounded=0;" parent="1" vertex="1">
          <mxGeometry x="435" y="2600" width="60" height="30" as="geometry" />
        </mxCell>
        <mxCell id="KCeUuFtNJj_yhPvQr9zj-1" value="P1" style="ellipse;whiteSpace=wrap;html=1;aspect=fixed;fillColor=#fff2cc;strokeColor=#d6b656;" vertex="1" parent="1">
          <mxGeometry x="342.5" y="3200" width="80" height="80" as="geometry" />
        </mxCell>
        <mxCell id="KCeUuFtNJj_yhPvQr9zj-2" value="p2" style="ellipse;whiteSpace=wrap;html=1;aspect=fixed;fillColor=#fff2cc;strokeColor=#d6b656;" vertex="1" parent="1">
          <mxGeometry x="467.5" y="3200" width="80" height="80" as="geometry" />
        </mxCell>
        <mxCell id="KCeUuFtNJj_yhPvQr9zj-3" value="frontend:v4" style="text;html=1;align=center;verticalAlign=middle;whiteSpace=wrap;rounded=0;" vertex="1" parent="1">
          <mxGeometry x="327.5" y="3170" width="60" height="30" as="geometry" />
        </mxCell>
        <mxCell id="KCeUuFtNJj_yhPvQr9zj-4" value="frontend:v4" style="text;html=1;align=center;verticalAlign=middle;whiteSpace=wrap;rounded=0;" vertex="1" parent="1">
          <mxGeometry x="462.5" y="3170" width="60" height="30" as="geometry" />
        </mxCell>
        <mxCell id="KCeUuFtNJj_yhPvQr9zj-5" value="frontend:v4" style="text;html=1;align=center;verticalAlign=middle;whiteSpace=wrap;rounded=0;" vertex="1" parent="1">
          <mxGeometry x="622.5" y="3170" width="60" height="30" as="geometry" />
        </mxCell>
        <mxCell id="KCeUuFtNJj_yhPvQr9zj-6" value="" style="edgeStyle=orthogonalEdgeStyle;rounded=0;orthogonalLoop=1;jettySize=auto;html=1;" edge="1" parent="1" source="KCeUuFtNJj_yhPvQr9zj-15" target="KCeUuFtNJj_yhPvQr9zj-8">
          <mxGeometry relative="1" as="geometry" />
        </mxCell>
        <mxCell id="KCeUuFtNJj_yhPvQr9zj-7" style="edgeStyle=orthogonalEdgeStyle;rounded=0;orthogonalLoop=1;jettySize=auto;html=1;" edge="1" parent="1" source="KCeUuFtNJj_yhPvQr9zj-15" target="KCeUuFtNJj_yhPvQr9zj-10">
          <mxGeometry relative="1" as="geometry" />
        </mxCell>
        <mxCell id="KCeUuFtNJj_yhPvQr9zj-8" value="replicas" style="text;html=1;align=center;verticalAlign=middle;resizable=0;points=[];autosize=1;strokeColor=none;fillColor=none;" vertex="1" parent="1">
          <mxGeometry x="517.5" y="3310" width="60" height="30" as="geometry" />
        </mxCell>
        <mxCell id="KCeUuFtNJj_yhPvQr9zj-9" value="ReplicaSet" style="text;html=1;align=center;verticalAlign=middle;whiteSpace=wrap;rounded=0;" vertex="1" parent="1">
          <mxGeometry x="397.5" y="3290" width="60" height="30" as="geometry" />
        </mxCell>
        <mxCell id="KCeUuFtNJj_yhPvQr9zj-10" value="p3" style="ellipse;whiteSpace=wrap;html=1;aspect=fixed;fillColor=#fff2cc;strokeColor=#d6b656;" vertex="1" parent="1">
          <mxGeometry x="592.5" y="3200" width="80" height="80" as="geometry" />
        </mxCell>
        <mxCell id="KCeUuFtNJj_yhPvQr9zj-11" style="edgeStyle=orthogonalEdgeStyle;rounded=0;orthogonalLoop=1;jettySize=auto;html=1;" edge="1" parent="1" source="KCeUuFtNJj_yhPvQr9zj-15" target="KCeUuFtNJj_yhPvQr9zj-1">
          <mxGeometry relative="1" as="geometry" />
        </mxCell>
        <mxCell id="KCeUuFtNJj_yhPvQr9zj-12" style="edgeStyle=orthogonalEdgeStyle;rounded=0;orthogonalLoop=1;jettySize=auto;html=1;entryX=0;entryY=1;entryDx=0;entryDy=0;" edge="1" parent="1" source="KCeUuFtNJj_yhPvQr9zj-15" target="KCeUuFtNJj_yhPvQr9zj-2">
          <mxGeometry relative="1" as="geometry" />
        </mxCell>
        <mxCell id="KCeUuFtNJj_yhPvQr9zj-13" style="edgeStyle=orthogonalEdgeStyle;rounded=0;orthogonalLoop=1;jettySize=auto;html=1;entryX=0.148;entryY=-0.013;entryDx=0;entryDy=0;entryPerimeter=0;" edge="1" parent="1">
          <mxGeometry relative="1" as="geometry">
            <mxPoint x="92.5" y="3080" as="sourcePoint" />
            <mxPoint x="343.5" y="3147" as="targetPoint" />
          </mxGeometry>
        </mxCell>
        <mxCell id="KCeUuFtNJj_yhPvQr9zj-14" value="" style="swimlane;startSize=0;" vertex="1" parent="1">
          <mxGeometry x="252.5" y="3150" width="505" height="260" as="geometry" />
        </mxCell>
        <mxCell id="KCeUuFtNJj_yhPvQr9zj-15" value="Deployment" style="text;html=1;align=center;verticalAlign=middle;whiteSpace=wrap;rounded=0;" vertex="1" parent="KCeUuFtNJj_yhPvQr9zj-14">
          <mxGeometry x="29" y="210" width="60" height="30" as="geometry" />
        </mxCell>
        <mxCell id="KCeUuFtNJj_yhPvQr9zj-16" value="replicas : 3" style="text;html=1;align=center;verticalAlign=middle;whiteSpace=wrap;rounded=0;" vertex="1" parent="KCeUuFtNJj_yhPvQr9zj-14">
          <mxGeometry x="55" y="230" width="60" height="30" as="geometry" />
        </mxCell>
        <mxCell id="KCeUuFtNJj_yhPvQr9zj-17" value="v5" style="text;html=1;align=center;verticalAlign=middle;whiteSpace=wrap;rounded=0;" vertex="1" parent="KCeUuFtNJj_yhPvQr9zj-14">
          <mxGeometry x="145" y="20" width="60" height="30" as="geometry" />
        </mxCell>
        <mxCell id="KCeUuFtNJj_yhPvQr9zj-18" value="Actor" style="shape=umlActor;verticalLabelPosition=bottom;verticalAlign=top;html=1;outlineConnect=0;" vertex="1" parent="1">
          <mxGeometry x="62.5" y="3060" width="30" height="60" as="geometry" />
        </mxCell>
        <mxCell id="KCeUuFtNJj_yhPvQr9zj-19" value="rollout upgrade" style="text;html=1;align=center;verticalAlign=middle;whiteSpace=wrap;rounded=0;" vertex="1" parent="1">
          <mxGeometry x="685.5" y="3120" width="60" height="30" as="geometry" />
        </mxCell>
        <mxCell id="KCeUuFtNJj_yhPvQr9zj-20" value="v5" style="text;html=1;align=center;verticalAlign=middle;whiteSpace=wrap;rounded=0;" vertex="1" parent="1">
          <mxGeometry x="432.5" y="3100" width="60" height="30" as="geometry" />
        </mxCell>
        <mxCell id="KCeUuFtNJj_yhPvQr9zj-21" value="Actor" style="shape=umlActor;verticalLabelPosition=bottom;verticalAlign=top;html=1;outlineConnect=0;" vertex="1" parent="1">
          <mxGeometry x="41" y="3560" width="30" height="60" as="geometry" />
        </mxCell>
        <mxCell id="KCeUuFtNJj_yhPvQr9zj-22" style="edgeStyle=orthogonalEdgeStyle;rounded=0;orthogonalLoop=1;jettySize=auto;html=1;" edge="1" parent="1" source="KCeUuFtNJj_yhPvQr9zj-23" target="KCeUuFtNJj_yhPvQr9zj-26">
          <mxGeometry relative="1" as="geometry" />
        </mxCell>
        <mxCell id="KCeUuFtNJj_yhPvQr9zj-23" value="LB" style="shape=callout;whiteSpace=wrap;html=1;perimeter=calloutPerimeter;" vertex="1" parent="1">
          <mxGeometry x="155" y="3560" width="120" height="80" as="geometry" />
        </mxCell>
        <mxCell id="KCeUuFtNJj_yhPvQr9zj-24" style="edgeStyle=orthogonalEdgeStyle;rounded=0;orthogonalLoop=1;jettySize=auto;html=1;entryX=-0.003;entryY=0.425;entryDx=0;entryDy=0;entryPerimeter=0;" edge="1" parent="1" source="KCeUuFtNJj_yhPvQr9zj-21" target="KCeUuFtNJj_yhPvQr9zj-23">
          <mxGeometry relative="1" as="geometry" />
        </mxCell>
        <mxCell id="KCeUuFtNJj_yhPvQr9zj-25" style="edgeStyle=orthogonalEdgeStyle;rounded=0;orthogonalLoop=1;jettySize=auto;html=1;entryX=0;entryY=0.5;entryDx=0;entryDy=0;" edge="1" parent="1" source="KCeUuFtNJj_yhPvQr9zj-26" target="KCeUuFtNJj_yhPvQr9zj-28">
          <mxGeometry relative="1" as="geometry" />
        </mxCell>
        <mxCell id="KCeUuFtNJj_yhPvQr9zj-26" value="Node pOrt" style="rounded=1;whiteSpace=wrap;html=1;" vertex="1" parent="1">
          <mxGeometry x="346" y="3580" width="120" height="60" as="geometry" />
        </mxCell>
        <mxCell id="KCeUuFtNJj_yhPvQr9zj-27" style="edgeStyle=orthogonalEdgeStyle;rounded=0;orthogonalLoop=1;jettySize=auto;html=1;" edge="1" parent="1" source="KCeUuFtNJj_yhPvQr9zj-28" target="KCeUuFtNJj_yhPvQr9zj-29">
          <mxGeometry relative="1" as="geometry" />
        </mxCell>
        <mxCell id="KCeUuFtNJj_yhPvQr9zj-28" value="Cluster IP" style="rounded=1;whiteSpace=wrap;html=1;" vertex="1" parent="1">
          <mxGeometry x="521" y="3610" width="120" height="60" as="geometry" />
        </mxCell>
        <mxCell id="KCeUuFtNJj_yhPvQr9zj-29" value="Pod" style="rounded=1;whiteSpace=wrap;html=1;" vertex="1" parent="1">
          <mxGeometry x="706" y="3640" width="120" height="60" as="geometry" />
        </mxCell>
        <mxCell id="KCeUuFtNJj_yhPvQr9zj-30" value="" style="edgeStyle=orthogonalEdgeStyle;rounded=0;orthogonalLoop=1;jettySize=auto;html=1;" edge="1" parent="1" target="KCeUuFtNJj_yhPvQr9zj-31">
          <mxGeometry relative="1" as="geometry">
            <mxPoint x="650" y="4075" as="sourcePoint" />
          </mxGeometry>
        </mxCell>
        <mxCell id="KCeUuFtNJj_yhPvQr9zj-31" value="Volumes Precreated" style="rounded=1;whiteSpace=wrap;html=1;fillColor=#f8cecc;strokeColor=#b85450;" vertex="1" parent="1">
          <mxGeometry x="430" y="4065" width="120" height="60" as="geometry" />
        </mxCell>
        <mxCell id="KCeUuFtNJj_yhPvQr9zj-32" value="" style="edgeStyle=orthogonalEdgeStyle;rounded=0;orthogonalLoop=1;jettySize=auto;html=1;" edge="1" parent="1" target="KCeUuFtNJj_yhPvQr9zj-36">
          <mxGeometry relative="1" as="geometry">
            <mxPoint x="420" y="3955" as="sourcePoint" />
          </mxGeometry>
        </mxCell>
        <mxCell id="KCeUuFtNJj_yhPvQr9zj-33" value="" style="edgeStyle=orthogonalEdgeStyle;rounded=0;orthogonalLoop=1;jettySize=auto;html=1;" edge="1" parent="1" source="KCeUuFtNJj_yhPvQr9zj-35">
          <mxGeometry relative="1" as="geometry">
            <mxPoint x="460" y="3995" as="targetPoint" />
          </mxGeometry>
        </mxCell>
        <mxCell id="KCeUuFtNJj_yhPvQr9zj-34" style="edgeStyle=orthogonalEdgeStyle;rounded=0;orthogonalLoop=1;jettySize=auto;html=1;entryX=0;entryY=0;entryDx=0;entryDy=0;" edge="1" parent="1" source="KCeUuFtNJj_yhPvQr9zj-35">
          <mxGeometry relative="1" as="geometry">
            <mxPoint x="662" y="4047" as="targetPoint" />
          </mxGeometry>
        </mxCell>
        <mxCell id="KCeUuFtNJj_yhPvQr9zj-35" value="PVC" style="rhombus;whiteSpace=wrap;html=1;fillColor=#dae8fc;strokeColor=#6c8ebf;" vertex="1" parent="1">
          <mxGeometry x="500" y="3955" width="80" height="80" as="geometry" />
        </mxCell>
        <mxCell id="KCeUuFtNJj_yhPvQr9zj-36" value="Volume" style="ellipse;whiteSpace=wrap;html=1;fillColor=#ffe6cc;strokeColor=#d79b00;" vertex="1" parent="1">
          <mxGeometry x="400" y="3820" width="120" height="80" as="geometry" />
        </mxCell>
        <mxCell id="KCeUuFtNJj_yhPvQr9zj-37" value="PV" style="rhombus;whiteSpace=wrap;html=1;fillColor=#dae8fc;strokeColor=#6c8ebf;" vertex="1" parent="1">
          <mxGeometry x="387.5" y="3955" width="80" height="80" as="geometry" />
        </mxCell>
        <mxCell id="KCeUuFtNJj_yhPvQr9zj-38" value="Pod" style="ellipse;whiteSpace=wrap;html=1;aspect=fixed;fillColor=#fff2cc;strokeColor=#d6b656;" vertex="1" parent="1">
          <mxGeometry x="644.5" y="4045" width="80" height="80" as="geometry" />
        </mxCell>
        <mxCell id="KCeUuFtNJj_yhPvQr9zj-39" value="Static Provisioning" style="text;html=1;align=center;verticalAlign=middle;whiteSpace=wrap;rounded=0;fillColor=#d5e8d4;strokeColor=#82b366;" vertex="1" parent="1">
          <mxGeometry x="292.5" y="3790" width="60" height="30" as="geometry" />
        </mxCell>
        <mxCell id="KCeUuFtNJj_yhPvQr9zj-40" value="20GB" style="text;html=1;align=center;verticalAlign=middle;whiteSpace=wrap;rounded=0;" vertex="1" parent="1">
          <mxGeometry x="332.5" y="3955" width="60" height="30" as="geometry" />
        </mxCell>
        <mxCell id="KCeUuFtNJj_yhPvQr9zj-41" value="20GB" style="text;html=1;align=center;verticalAlign=middle;whiteSpace=wrap;rounded=0;" vertex="1" parent="1">
          <mxGeometry x="347.5" y="3845" width="60" height="30" as="geometry" />
        </mxCell>
        <mxCell id="KCeUuFtNJj_yhPvQr9zj-42" value="15GB" style="text;html=1;align=center;verticalAlign=middle;whiteSpace=wrap;rounded=0;" vertex="1" parent="1">
          <mxGeometry x="477.5" y="3950" width="60" height="30" as="geometry" />
        </mxCell>
        <mxCell id="KCeUuFtNJj_yhPvQr9zj-43" value="claimRef" style="text;html=1;align=center;verticalAlign=middle;whiteSpace=wrap;rounded=0;" vertex="1" parent="1">
          <mxGeometry x="682.5" y="4020" width="60" height="30" as="geometry" />
        </mxCell>
        <mxCell id="KCeUuFtNJj_yhPvQr9zj-44" value="host" style="text;html=1;align=center;verticalAlign=middle;whiteSpace=wrap;rounded=0;" vertex="1" parent="1">
          <mxGeometry x="430.5" y="3790" width="60" height="30" as="geometry" />
        </mxCell>
        <mxCell id="KCeUuFtNJj_yhPvQr9zj-45" value="PVC" style="ellipse;whiteSpace=wrap;html=1;aspect=fixed;" vertex="1" parent="1">
          <mxGeometry x="82.5" y="4020" width="80" height="80" as="geometry" />
        </mxCell>
        <mxCell id="KCeUuFtNJj_yhPvQr9zj-46" value="PV" style="ellipse;whiteSpace=wrap;html=1;aspect=fixed;" vertex="1" parent="1">
          <mxGeometry x="77.5" y="3905" width="80" height="80" as="geometry" />
        </mxCell>
        <mxCell id="KCeUuFtNJj_yhPvQr9zj-47" style="edgeStyle=orthogonalEdgeStyle;rounded=0;orthogonalLoop=1;jettySize=auto;html=1;entryX=0;entryY=0.5;entryDx=0;entryDy=0;" edge="1" parent="1" target="KCeUuFtNJj_yhPvQr9zj-49">
          <mxGeometry relative="1" as="geometry">
            <mxPoint x="449" y="4270" as="sourcePoint" />
          </mxGeometry>
        </mxCell>
        <mxCell id="KCeUuFtNJj_yhPvQr9zj-48" style="edgeStyle=orthogonalEdgeStyle;rounded=0;orthogonalLoop=1;jettySize=auto;html=1;" edge="1" parent="1" target="KCeUuFtNJj_yhPvQr9zj-51">
          <mxGeometry relative="1" as="geometry">
            <mxPoint x="449" y="4270" as="sourcePoint" />
          </mxGeometry>
        </mxCell>
        <mxCell id="KCeUuFtNJj_yhPvQr9zj-49" value="Auto created based on request" style="rounded=1;whiteSpace=wrap;html=1;fillColor=#d5e8d4;strokeColor=#82b366;" vertex="1" parent="1">
          <mxGeometry x="604.5" y="4250" width="120" height="60" as="geometry" />
        </mxCell>
        <mxCell id="KCeUuFtNJj_yhPvQr9zj-50" value="" style="edgeStyle=orthogonalEdgeStyle;rounded=0;orthogonalLoop=1;jettySize=auto;html=1;" edge="1" parent="1" source="KCeUuFtNJj_yhPvQr9zj-51" target="KCeUuFtNJj_yhPvQr9zj-53">
          <mxGeometry relative="1" as="geometry" />
        </mxCell>
        <mxCell id="KCeUuFtNJj_yhPvQr9zj-51" value="PVC" style="rhombus;whiteSpace=wrap;html=1;fillColor=#dae8fc;strokeColor=#6c8ebf;" vertex="1" parent="1">
          <mxGeometry x="509.5" y="4370" width="80" height="80" as="geometry" />
        </mxCell>
        <mxCell id="KCeUuFtNJj_yhPvQr9zj-52" style="edgeStyle=orthogonalEdgeStyle;rounded=0;orthogonalLoop=1;jettySize=auto;html=1;entryX=1;entryY=0.5;entryDx=0;entryDy=0;" edge="1" parent="1" source="KCeUuFtNJj_yhPvQr9zj-53" target="KCeUuFtNJj_yhPvQr9zj-55">
          <mxGeometry relative="1" as="geometry" />
        </mxCell>
        <mxCell id="KCeUuFtNJj_yhPvQr9zj-53" value="Storage Class" style="ellipse;shape=cloud;whiteSpace=wrap;html=1;fillColor=#f8cecc;strokeColor=#b85450;" vertex="1" parent="1">
          <mxGeometry x="324.5" y="4370" width="120" height="80" as="geometry" />
        </mxCell>
        <mxCell id="KCeUuFtNJj_yhPvQr9zj-54" value="50GB" style="text;html=1;align=center;verticalAlign=middle;whiteSpace=wrap;rounded=0;" vertex="1" parent="1">
          <mxGeometry x="305.5" y="4250" width="60" height="30" as="geometry" />
        </mxCell>
        <mxCell id="KCeUuFtNJj_yhPvQr9zj-55" value="50gb" style="shape=trapezoid;perimeter=trapezoidPerimeter;whiteSpace=wrap;html=1;fixedSize=1;fillColor=#e1d5e7;strokeColor=#9673a6;" vertex="1" parent="1">
          <mxGeometry x="127" y="4380" width="120" height="60" as="geometry" />
        </mxCell>
        <mxCell id="KCeUuFtNJj_yhPvQr9zj-56" value="Dynamic Provisioning" style="text;html=1;align=center;verticalAlign=middle;whiteSpace=wrap;rounded=0;fillColor=#d5e8d4;strokeColor=#82b366;" vertex="1" parent="1">
          <mxGeometry x="142" y="4240" width="60" height="30" as="geometry" />
        </mxCell>
        <mxCell id="KCeUuFtNJj_yhPvQr9zj-57" value="Pod" style="ellipse;whiteSpace=wrap;html=1;aspect=fixed;fillColor=#fff2cc;strokeColor=#d6b656;" vertex="1" parent="1">
          <mxGeometry x="367.03" y="4230" width="80" height="80" as="geometry" />
        </mxCell>
        <mxCell id="KCeUuFtNJj_yhPvQr9zj-58" value="Taint" style="ellipse;whiteSpace=wrap;html=1;aspect=fixed;fillColor=#d5e8d4;strokeColor=#82b366;" vertex="1" parent="1">
          <mxGeometry x="205" y="4510" width="80" height="80" as="geometry" />
        </mxCell>
        <mxCell id="KCeUuFtNJj_yhPvQr9zj-59" value="Tolerance" style="ellipse;whiteSpace=wrap;html=1;aspect=fixed;fillColor=#d5e8d4;strokeColor=#82b366;" vertex="1" parent="1">
          <mxGeometry x="400" y="4520" width="80" height="80" as="geometry" />
        </mxCell>
        <mxCell id="KCeUuFtNJj_yhPvQr9zj-61" value="" style="edgeStyle=orthogonalEdgeStyle;rounded=0;orthogonalLoop=1;jettySize=auto;html=1;" edge="1" parent="1" source="KCeUuFtNJj_yhPvQr9zj-62" target="KCeUuFtNJj_yhPvQr9zj-64">
          <mxGeometry relative="1" as="geometry" />
        </mxCell>
        <mxCell id="KCeUuFtNJj_yhPvQr9zj-62" value="Scheluding phase&amp;nbsp;" style="ellipse;whiteSpace=wrap;html=1;aspect=fixed;" vertex="1" parent="1">
          <mxGeometry x="187.5" y="4765" width="80" height="80" as="geometry" />
        </mxCell>
        <mxCell id="KCeUuFtNJj_yhPvQr9zj-63" value="" style="edgeStyle=orthogonalEdgeStyle;rounded=0;orthogonalLoop=1;jettySize=auto;html=1;" edge="1" parent="1" source="KCeUuFtNJj_yhPvQr9zj-64" target="KCeUuFtNJj_yhPvQr9zj-66">
          <mxGeometry relative="1" as="geometry" />
        </mxCell>
        <mxCell id="KCeUuFtNJj_yhPvQr9zj-64" value="Initializing Phase" style="ellipse;whiteSpace=wrap;html=1;aspect=fixed;" vertex="1" parent="1">
          <mxGeometry x="357.5" y="4765" width="80" height="80" as="geometry" />
        </mxCell>
        <mxCell id="KCeUuFtNJj_yhPvQr9zj-65" style="edgeStyle=orthogonalEdgeStyle;rounded=0;orthogonalLoop=1;jettySize=auto;html=1;" edge="1" parent="1" source="KCeUuFtNJj_yhPvQr9zj-66" target="KCeUuFtNJj_yhPvQr9zj-74">
          <mxGeometry relative="1" as="geometry" />
        </mxCell>
        <mxCell id="KCeUuFtNJj_yhPvQr9zj-66" value="running" style="ellipse;whiteSpace=wrap;html=1;aspect=fixed;fillColor=#d5e8d4;strokeColor=#82b366;" vertex="1" parent="1">
          <mxGeometry x="517.5" y="4765" width="80" height="80" as="geometry" />
        </mxCell>
        <mxCell id="KCeUuFtNJj_yhPvQr9zj-67" value="Pod Lifecycle" style="text;html=1;align=center;verticalAlign=middle;whiteSpace=wrap;rounded=0;fillColor=#dae8fc;strokeColor=#6c8ebf;" vertex="1" parent="1">
          <mxGeometry x="127.5" y="4725" width="60" height="30" as="geometry" />
        </mxCell>
        <mxCell id="KCeUuFtNJj_yhPvQr9zj-68" style="edgeStyle=orthogonalEdgeStyle;rounded=0;orthogonalLoop=1;jettySize=auto;html=1;" edge="1" parent="1" source="KCeUuFtNJj_yhPvQr9zj-69" target="KCeUuFtNJj_yhPvQr9zj-62">
          <mxGeometry relative="1" as="geometry" />
        </mxCell>
        <mxCell id="KCeUuFtNJj_yhPvQr9zj-69" value="Actor" style="shape=umlActor;verticalLabelPosition=bottom;verticalAlign=top;html=1;outlineConnect=0;fillColor=#d5e8d4;strokeColor=#82b366;" vertex="1" parent="1">
          <mxGeometry x="57.5" y="4775" width="30" height="60" as="geometry" />
        </mxCell>
        <mxCell id="KCeUuFtNJj_yhPvQr9zj-70" style="edgeStyle=orthogonalEdgeStyle;rounded=0;orthogonalLoop=1;jettySize=auto;html=1;" edge="1" parent="1" source="KCeUuFtNJj_yhPvQr9zj-71">
          <mxGeometry relative="1" as="geometry">
            <mxPoint x="457.5" y="4800" as="targetPoint" />
          </mxGeometry>
        </mxCell>
        <mxCell id="KCeUuFtNJj_yhPvQr9zj-71" value="Readiness" style="shape=process;whiteSpace=wrap;html=1;backgroundOutline=1;fillColor=#fff2cc;strokeColor=#d6b656;" vertex="1" parent="1">
          <mxGeometry x="194.5" y="4875" width="120" height="60" as="geometry" />
        </mxCell>
        <mxCell id="KCeUuFtNJj_yhPvQr9zj-72" style="edgeStyle=orthogonalEdgeStyle;rounded=0;orthogonalLoop=1;jettySize=auto;html=1;" edge="1" parent="1" source="KCeUuFtNJj_yhPvQr9zj-73" target="KCeUuFtNJj_yhPvQr9zj-74">
          <mxGeometry relative="1" as="geometry" />
        </mxCell>
        <mxCell id="KCeUuFtNJj_yhPvQr9zj-73" value="Liveness" style="shape=process;whiteSpace=wrap;html=1;backgroundOutline=1;fillColor=#fff2cc;strokeColor=#d6b656;" vertex="1" parent="1">
          <mxGeometry x="567.5" y="4900" width="120" height="60" as="geometry" />
        </mxCell>
        <mxCell id="KCeUuFtNJj_yhPvQr9zj-74" value="restarted" style="ellipse;whiteSpace=wrap;html=1;fillColor=#dae8fc;strokeColor=#6c8ebf;" vertex="1" parent="1">
          <mxGeometry x="622.5" y="4700" width="120" height="80" as="geometry" />
        </mxCell>
        <mxCell id="KCeUuFtNJj_yhPvQr9zj-84" style="edgeStyle=orthogonalEdgeStyle;rounded=0;orthogonalLoop=1;jettySize=auto;html=1;entryX=0.5;entryY=1;entryDx=0;entryDy=0;" edge="1" parent="1" source="KCeUuFtNJj_yhPvQr9zj-75" target="KCeUuFtNJj_yhPvQr9zj-71">
          <mxGeometry relative="1" as="geometry" />
        </mxCell>
        <mxCell id="KCeUuFtNJj_yhPvQr9zj-85" style="edgeStyle=orthogonalEdgeStyle;rounded=0;orthogonalLoop=1;jettySize=auto;html=1;entryX=0;entryY=1;entryDx=0;entryDy=0;" edge="1" parent="1" source="KCeUuFtNJj_yhPvQr9zj-75" target="KCeUuFtNJj_yhPvQr9zj-73">
          <mxGeometry relative="1" as="geometry" />
        </mxCell>
        <mxCell id="KCeUuFtNJj_yhPvQr9zj-75" value="http&lt;div&gt;tcp&lt;/div&gt;&lt;div&gt;exec&lt;/div&gt;&lt;div&gt;&lt;br&gt;&lt;/div&gt;" style="text;html=1;align=center;verticalAlign=middle;whiteSpace=wrap;rounded=0;fillColor=#dae8fc;strokeColor=#6c8ebf;" vertex="1" parent="1">
          <mxGeometry x="357.5" y="4930" width="65" height="50" as="geometry" />
        </mxCell>
        <mxCell id="KCeUuFtNJj_yhPvQr9zj-76" value="" style="ellipse;whiteSpace=wrap;html=1;aspect=fixed;fillColor=#ffe6cc;strokeColor=#d79b00;" vertex="1" parent="1">
          <mxGeometry x="303.74" y="4630" width="80" height="80" as="geometry" />
        </mxCell>
        <mxCell id="KCeUuFtNJj_yhPvQr9zj-80" style="edgeStyle=orthogonalEdgeStyle;rounded=0;orthogonalLoop=1;jettySize=auto;html=1;" edge="1" parent="1" source="KCeUuFtNJj_yhPvQr9zj-77">
          <mxGeometry relative="1" as="geometry">
            <mxPoint x="450" y="4590" as="targetPoint" />
          </mxGeometry>
        </mxCell>
        <mxCell id="KCeUuFtNJj_yhPvQr9zj-77" value="Affinity" style="text;html=1;align=center;verticalAlign=middle;resizable=0;points=[];autosize=1;strokeColor=#b85450;fillColor=#f8cecc;" vertex="1" parent="1">
          <mxGeometry x="313.74" y="4655" width="60" height="30" as="geometry" />
        </mxCell>
        <mxCell id="KCeUuFtNJj_yhPvQr9zj-78" style="edgeStyle=orthogonalEdgeStyle;rounded=0;orthogonalLoop=1;jettySize=auto;html=1;entryX=0.688;entryY=1;entryDx=0;entryDy=0;entryPerimeter=0;" edge="1" parent="1" source="KCeUuFtNJj_yhPvQr9zj-76" target="KCeUuFtNJj_yhPvQr9zj-58">
          <mxGeometry relative="1" as="geometry" />
        </mxCell>
        <mxCell id="KCeUuFtNJj_yhPvQr9zj-81" value="" style="endArrow=classic;startArrow=classic;html=1;rounded=0;entryX=0;entryY=0.375;entryDx=0;entryDy=0;entryPerimeter=0;" edge="1" parent="1" target="KCeUuFtNJj_yhPvQr9zj-59">
          <mxGeometry width="50" height="50" relative="1" as="geometry">
            <mxPoint x="290" y="4550" as="sourcePoint" />
            <mxPoint x="370" y="4530" as="targetPoint" />
          </mxGeometry>
        </mxCell>
        <mxCell id="KCeUuFtNJj_yhPvQr9zj-86" value="NodeJS Prod CI-CD Pipeline" style="rounded=0;whiteSpace=wrap;html=1;fillColor=#dae8fc;strokeColor=#6c8ebf;" vertex="1" parent="1">
          <mxGeometry x="261.9" y="5070" width="120" height="60" as="geometry" />
        </mxCell>
        <mxCell id="KCeUuFtNJj_yhPvQr9zj-87" value="" style="edgeStyle=orthogonalEdgeStyle;rounded=0;orthogonalLoop=1;jettySize=auto;html=1;" edge="1" parent="1" source="KCeUuFtNJj_yhPvQr9zj-110" target="KCeUuFtNJj_yhPvQr9zj-95">
          <mxGeometry relative="1" as="geometry" />
        </mxCell>
        <mxCell id="KCeUuFtNJj_yhPvQr9zj-88" value="Build the app" style="ellipse;whiteSpace=wrap;html=1;aspect=fixed;fillColor=#fff2cc;strokeColor=#d6b656;" vertex="1" parent="1">
          <mxGeometry x="364.5" y="5170" width="80" height="80" as="geometry" />
        </mxCell>
        <mxCell id="KCeUuFtNJj_yhPvQr9zj-89" value="Deploy" style="ellipse;whiteSpace=wrap;html=1;aspect=fixed;fillColor=#f8cecc;strokeColor=#b85450;" vertex="1" parent="1">
          <mxGeometry x="694.65" y="5170" width="80" height="80" as="geometry" />
        </mxCell>
        <mxCell id="KCeUuFtNJj_yhPvQr9zj-90" value="" style="edgeStyle=orthogonalEdgeStyle;rounded=0;orthogonalLoop=1;jettySize=auto;html=1;" edge="1" parent="1" source="KCeUuFtNJj_yhPvQr9zj-91" target="KCeUuFtNJj_yhPvQr9zj-93">
          <mxGeometry relative="1" as="geometry" />
        </mxCell>
        <mxCell id="KCeUuFtNJj_yhPvQr9zj-91" value="Setting the env" style="ellipse;whiteSpace=wrap;html=1;aspect=fixed;fillColor=#fff2cc;strokeColor=#d6b656;" vertex="1" parent="1">
          <mxGeometry x="151.9" y="5170" width="80" height="80" as="geometry" />
        </mxCell>
        <mxCell id="KCeUuFtNJj_yhPvQr9zj-92" value="" style="edgeStyle=orthogonalEdgeStyle;rounded=0;orthogonalLoop=1;jettySize=auto;html=1;" edge="1" parent="1" source="KCeUuFtNJj_yhPvQr9zj-93" target="KCeUuFtNJj_yhPvQr9zj-88">
          <mxGeometry relative="1" as="geometry" />
        </mxCell>
        <mxCell id="KCeUuFtNJj_yhPvQr9zj-93" value="Check the vulnerability of our code" style="ellipse;whiteSpace=wrap;html=1;aspect=fixed;fillColor=#fff2cc;strokeColor=#d6b656;" vertex="1" parent="1">
          <mxGeometry x="257.9" y="5170" width="80" height="80" as="geometry" />
        </mxCell>
        <mxCell id="KCeUuFtNJj_yhPvQr9zj-94" value="" style="edgeStyle=orthogonalEdgeStyle;rounded=0;orthogonalLoop=1;jettySize=auto;html=1;" edge="1" parent="1" source="KCeUuFtNJj_yhPvQr9zj-95" target="KCeUuFtNJj_yhPvQr9zj-89">
          <mxGeometry relative="1" as="geometry" />
        </mxCell>
        <mxCell id="KCeUuFtNJj_yhPvQr9zj-112" value="" style="edgeStyle=orthogonalEdgeStyle;rounded=0;orthogonalLoop=1;jettySize=auto;html=1;" edge="1" parent="1" source="KCeUuFtNJj_yhPvQr9zj-95" target="KCeUuFtNJj_yhPvQr9zj-111">
          <mxGeometry relative="1" as="geometry" />
        </mxCell>
        <mxCell id="KCeUuFtNJj_yhPvQr9zj-95" value="Check the vulnerability of our build application" style="ellipse;whiteSpace=wrap;html=1;aspect=fixed;fillColor=#fff2cc;strokeColor=#d6b656;" vertex="1" parent="1">
          <mxGeometry x="567.15" y="5170" width="80" height="80" as="geometry" />
        </mxCell>
        <mxCell id="KCeUuFtNJj_yhPvQr9zj-96" value="Git" style="text;html=1;align=center;verticalAlign=middle;whiteSpace=wrap;rounded=0;" vertex="1" parent="1">
          <mxGeometry x="46.900000000000006" y="5270" width="60" height="30" as="geometry" />
        </mxCell>
        <mxCell id="KCeUuFtNJj_yhPvQr9zj-97" value="nodeJS" style="text;html=1;align=center;verticalAlign=middle;whiteSpace=wrap;rounded=0;" vertex="1" parent="1">
          <mxGeometry x="151.9" y="5260" width="60" height="30" as="geometry" />
        </mxCell>
        <mxCell id="KCeUuFtNJj_yhPvQr9zj-98" value="SonarQube" style="text;html=1;align=center;verticalAlign=middle;whiteSpace=wrap;rounded=0;" vertex="1" parent="1">
          <mxGeometry x="271.9" y="5260" width="60" height="30" as="geometry" />
        </mxCell>
        <mxCell id="KCeUuFtNJj_yhPvQr9zj-99" value="Docker image" style="text;html=1;align=center;verticalAlign=middle;whiteSpace=wrap;rounded=0;" vertex="1" parent="1">
          <mxGeometry x="386.9" y="5260" width="60" height="30" as="geometry" />
        </mxCell>
        <mxCell id="KCeUuFtNJj_yhPvQr9zj-100" value="Trivy" style="text;html=1;align=center;verticalAlign=middle;whiteSpace=wrap;rounded=0;" vertex="1" parent="1">
          <mxGeometry x="491.9" y="5260" width="60" height="30" as="geometry" />
        </mxCell>
        <mxCell id="KCeUuFtNJj_yhPvQr9zj-101" value="Docker C/ Kubernetes" style="text;html=1;align=center;verticalAlign=middle;whiteSpace=wrap;rounded=0;" vertex="1" parent="1">
          <mxGeometry x="611.9" y="5260" width="60" height="30" as="geometry" />
        </mxCell>
        <mxCell id="KCeUuFtNJj_yhPvQr9zj-102" value="" style="edgeStyle=orthogonalEdgeStyle;rounded=0;orthogonalLoop=1;jettySize=auto;html=1;" edge="1" parent="1" source="KCeUuFtNJj_yhPvQr9zj-103" target="KCeUuFtNJj_yhPvQr9zj-91">
          <mxGeometry relative="1" as="geometry" />
        </mxCell>
        <mxCell id="KCeUuFtNJj_yhPvQr9zj-103" value="Getting the code" style="ellipse;whiteSpace=wrap;html=1;aspect=fixed;fillColor=#fff2cc;strokeColor=#d6b656;" vertex="1" parent="1">
          <mxGeometry x="36.900000000000006" y="5180" width="80" height="80" as="geometry" />
        </mxCell>
        <mxCell id="KCeUuFtNJj_yhPvQr9zj-104" value="npm" style="text;html=1;align=center;verticalAlign=middle;whiteSpace=wrap;rounded=0;" vertex="1" parent="1">
          <mxGeometry x="151.9" y="5280" width="60" height="30" as="geometry" />
        </mxCell>
        <mxCell id="KCeUuFtNJj_yhPvQr9zj-105" value="" style="shape=flexArrow;endArrow=classic;startArrow=classic;html=1;rounded=0;fillColor=#ffe6cc;strokeColor=#d79b00;" edge="1" parent="1">
          <mxGeometry width="100" height="100" relative="1" as="geometry">
            <mxPoint x="21.900000000000006" y="5320" as="sourcePoint" />
            <mxPoint x="721.9" y="5320" as="targetPoint" />
          </mxGeometry>
        </mxCell>
        <mxCell id="KCeUuFtNJj_yhPvQr9zj-106" value="2P&lt;div&gt;1-Infra&lt;/div&gt;&lt;div&gt;2- Application&lt;/div&gt;" style="rhombus;whiteSpace=wrap;html=1;fillColor=#e1d5e7;strokeColor=#9673a6;" vertex="1" parent="1">
          <mxGeometry x="784.65" y="5150" width="130" height="110" as="geometry" />
        </mxCell>
        <mxCell id="KCeUuFtNJj_yhPvQr9zj-107" value="NodeJS" style="text;html=1;align=center;verticalAlign=middle;whiteSpace=wrap;rounded=0;" vertex="1" parent="1">
          <mxGeometry x="87.4" y="5050" width="60" height="30" as="geometry" />
        </mxCell>
        <mxCell id="KCeUuFtNJj_yhPvQr9zj-108" value="DevSecOPs Pipeline" style="text;html=1;align=center;verticalAlign=middle;whiteSpace=wrap;rounded=0;" vertex="1" parent="1">
          <mxGeometry x="262.15" y="5350" width="170" height="30" as="geometry" />
        </mxCell>
        <mxCell id="KCeUuFtNJj_yhPvQr9zj-109" value="" style="edgeStyle=orthogonalEdgeStyle;rounded=0;orthogonalLoop=1;jettySize=auto;html=1;" edge="1" parent="1" source="KCeUuFtNJj_yhPvQr9zj-88" target="KCeUuFtNJj_yhPvQr9zj-110">
          <mxGeometry relative="1" as="geometry">
            <mxPoint x="457.15" y="5210" as="sourcePoint" />
            <mxPoint x="567.15" y="5210" as="targetPoint" />
          </mxGeometry>
        </mxCell>
        <mxCell id="KCeUuFtNJj_yhPvQr9zj-110" value="Push" style="ellipse;whiteSpace=wrap;html=1;aspect=fixed;" vertex="1" parent="1">
          <mxGeometry x="467.15" y="5170" width="80" height="80" as="geometry" />
        </mxCell>
        <mxCell id="KCeUuFtNJj_yhPvQr9zj-111" value="Monitoring" style="ellipse;whiteSpace=wrap;html=1;aspect=fixed;" vertex="1" parent="1">
          <mxGeometry x="583" y="5050" width="80" height="80" as="geometry" />
        </mxCell>
        <mxCell id="KCeUuFtNJj_yhPvQr9zj-113" value="" style="edgeStyle=orthogonalEdgeStyle;rounded=0;orthogonalLoop=1;jettySize=auto;html=1;" edge="1" parent="1" source="KCeUuFtNJj_yhPvQr9zj-114" target="KCeUuFtNJj_yhPvQr9zj-115">
          <mxGeometry relative="1" as="geometry" />
        </mxCell>
        <mxCell id="KCeUuFtNJj_yhPvQr9zj-114" value="SonarQube&amp;nbsp;" style="ellipse;whiteSpace=wrap;html=1;aspect=fixed;fillColor=#f8cecc;strokeColor=#b85450;" vertex="1" parent="1">
          <mxGeometry x="273.52" y="5480" width="80" height="80" as="geometry" />
        </mxCell>
        <mxCell id="KCeUuFtNJj_yhPvQr9zj-115" value="It main purpose it to do analysis on the developer&#39;s code" style="shape=card;whiteSpace=wrap;html=1;fillColor=#fff2cc;strokeColor=#d6b656;" vertex="1" parent="1">
          <mxGeometry x="443.52" y="5480" width="170" height="150" as="geometry" />
        </mxCell>
        <mxCell id="KCeUuFtNJj_yhPvQr9zj-116" value="" style="edgeStyle=orthogonalEdgeStyle;rounded=0;orthogonalLoop=1;jettySize=auto;html=1;" edge="1" parent="1" source="KCeUuFtNJj_yhPvQr9zj-117" target="KCeUuFtNJj_yhPvQr9zj-114">
          <mxGeometry relative="1" as="geometry" />
        </mxCell>
        <mxCell id="KCeUuFtNJj_yhPvQr9zj-117" value="jenkins" style="shape=cylinder3;whiteSpace=wrap;html=1;boundedLbl=1;backgroundOutline=1;size=15;" vertex="1" parent="1">
          <mxGeometry x="125.51999999999998" y="5480" width="60" height="80" as="geometry" />
        </mxCell>
        <mxCell id="KCeUuFtNJj_yhPvQr9zj-118" value="" style="edgeStyle=orthogonalEdgeStyle;rounded=0;orthogonalLoop=1;jettySize=auto;html=1;" edge="1" parent="1" source="KCeUuFtNJj_yhPvQr9zj-119">
          <mxGeometry relative="1" as="geometry">
            <mxPoint x="276" y="5720" as="targetPoint" />
          </mxGeometry>
        </mxCell>
        <mxCell id="KCeUuFtNJj_yhPvQr9zj-119" value="Monitor &amp;amp; Observability" style="rounded=1;whiteSpace=wrap;html=1;" vertex="1" parent="1">
          <mxGeometry x="58.25" y="5690" width="120" height="60" as="geometry" />
        </mxCell>
        <mxCell id="KCeUuFtNJj_yhPvQr9zj-120" value="Promethues -&amp;nbsp;&lt;div&gt;OPensource2012, was made public in 2015&lt;/div&gt;&lt;div&gt;Provided Metrics and alerting&lt;/div&gt;&lt;div&gt;Written in Go language and intgreates well with cloud native infra&lt;/div&gt;" style="shape=card;whiteSpace=wrap;html=1;" vertex="1" parent="1">
          <mxGeometry x="528.25" y="5740" width="175" height="120" as="geometry" />
        </mxCell>
        <mxCell id="KCeUuFtNJj_yhPvQr9zj-121" value="P&amp;amp;G&lt;div&gt;Prometheus and Grafana&lt;/div&gt;&lt;div&gt;Splunk O&lt;/div&gt;" style="shape=note;whiteSpace=wrap;html=1;backgroundOutline=1;darkOpacity=0.05;" vertex="1" parent="1">
          <mxGeometry x="277" y="5660" width="185" height="120" as="geometry" />
        </mxCell>
        <mxCell id="KCeUuFtNJj_yhPvQr9zj-122" style="edgeStyle=orthogonalEdgeStyle;rounded=0;orthogonalLoop=1;jettySize=auto;html=1;entryX=0.5;entryY=0;entryDx=0;entryDy=0;" edge="1" parent="1" source="KCeUuFtNJj_yhPvQr9zj-125" target="KCeUuFtNJj_yhPvQr9zj-137">
          <mxGeometry relative="1" as="geometry" />
        </mxCell>
        <mxCell id="KCeUuFtNJj_yhPvQr9zj-123" style="edgeStyle=orthogonalEdgeStyle;rounded=0;orthogonalLoop=1;jettySize=auto;html=1;" edge="1" parent="1" source="KCeUuFtNJj_yhPvQr9zj-125">
          <mxGeometry relative="1" as="geometry">
            <mxPoint x="110" y="6035" as="targetPoint" />
          </mxGeometry>
        </mxCell>
        <mxCell id="KCeUuFtNJj_yhPvQr9zj-124" style="edgeStyle=orthogonalEdgeStyle;rounded=0;orthogonalLoop=1;jettySize=auto;html=1;" edge="1" parent="1" source="KCeUuFtNJj_yhPvQr9zj-125" target="KCeUuFtNJj_yhPvQr9zj-138">
          <mxGeometry relative="1" as="geometry" />
        </mxCell>
        <mxCell id="KCeUuFtNJj_yhPvQr9zj-125" value="Prom" style="whiteSpace=wrap;html=1;aspect=fixed;fillColor=#ffe6cc;strokeColor=#d79b00;" vertex="1" parent="1">
          <mxGeometry x="130" y="5995" width="70" height="70" as="geometry" />
        </mxCell>
        <mxCell id="KCeUuFtNJj_yhPvQr9zj-126" value="In time DB" style="ellipse;whiteSpace=wrap;html=1;aspect=fixed;fillColor=#ffe6cc;strokeColor=#d79b00;" vertex="1" parent="1">
          <mxGeometry x="340" y="5955" width="80" height="80" as="geometry" />
        </mxCell>
        <mxCell id="KCeUuFtNJj_yhPvQr9zj-127" style="edgeStyle=orthogonalEdgeStyle;rounded=0;orthogonalLoop=1;jettySize=auto;html=1;entryX=1;entryY=0.75;entryDx=0;entryDy=0;" edge="1" parent="1" source="KCeUuFtNJj_yhPvQr9zj-129" target="KCeUuFtNJj_yhPvQr9zj-125">
          <mxGeometry relative="1" as="geometry" />
        </mxCell>
        <mxCell id="KCeUuFtNJj_yhPvQr9zj-128" style="edgeStyle=orthogonalEdgeStyle;rounded=0;orthogonalLoop=1;jettySize=auto;html=1;" edge="1" parent="1" source="KCeUuFtNJj_yhPvQr9zj-129">
          <mxGeometry relative="1" as="geometry">
            <mxPoint x="610" y="6190" as="targetPoint" />
            <Array as="points">
              <mxPoint x="541" y="6115" />
            </Array>
          </mxGeometry>
        </mxCell>
        <mxCell id="KCeUuFtNJj_yhPvQr9zj-129" value="Promtool" style="ellipse;whiteSpace=wrap;html=1;aspect=fixed;fillColor=#ffe6cc;strokeColor=#d79b00;" vertex="1" parent="1">
          <mxGeometry x="350" y="6075" width="80" height="80" as="geometry" />
        </mxCell>
        <mxCell id="KCeUuFtNJj_yhPvQr9zj-130" value="DNS service Discovery" style="ellipse;whiteSpace=wrap;html=1;aspect=fixed;fillColor=#ffe6cc;strokeColor=#d79b00;" vertex="1" parent="1">
          <mxGeometry x="185" y="6105" width="80" height="80" as="geometry" />
        </mxCell>
        <mxCell id="KCeUuFtNJj_yhPvQr9zj-131" style="edgeStyle=orthogonalEdgeStyle;rounded=0;orthogonalLoop=1;jettySize=auto;html=1;entryX=0.404;entryY=0.013;entryDx=0;entryDy=0;entryPerimeter=0;" edge="1" parent="1" source="KCeUuFtNJj_yhPvQr9zj-125" target="KCeUuFtNJj_yhPvQr9zj-130">
          <mxGeometry relative="1" as="geometry" />
        </mxCell>
        <mxCell id="KCeUuFtNJj_yhPvQr9zj-132" value="exporters" style="text;html=1;align=center;verticalAlign=middle;whiteSpace=wrap;rounded=0;fillColor=#d5e8d4;strokeColor=#82b366;" vertex="1" parent="1">
          <mxGeometry x="113" y="6085" width="60" height="30" as="geometry" />
        </mxCell>
        <mxCell id="KCeUuFtNJj_yhPvQr9zj-133" style="edgeStyle=orthogonalEdgeStyle;rounded=0;orthogonalLoop=1;jettySize=auto;html=1;" edge="1" parent="1" source="KCeUuFtNJj_yhPvQr9zj-134">
          <mxGeometry relative="1" as="geometry">
            <mxPoint x="170" y="5975" as="targetPoint" />
          </mxGeometry>
        </mxCell>
        <mxCell id="KCeUuFtNJj_yhPvQr9zj-134" value="Grafana" style="shape=document;whiteSpace=wrap;html=1;boundedLbl=1;fillColor=#e1d5e7;strokeColor=#9673a6;" vertex="1" parent="1">
          <mxGeometry x="200" y="5890" width="120" height="80" as="geometry" />
        </mxCell>
        <mxCell id="KCeUuFtNJj_yhPvQr9zj-135" style="edgeStyle=orthogonalEdgeStyle;rounded=0;orthogonalLoop=1;jettySize=auto;html=1;entryX=0.025;entryY=0.746;entryDx=0;entryDy=0;entryPerimeter=0;" edge="1" parent="1" source="KCeUuFtNJj_yhPvQr9zj-125" target="KCeUuFtNJj_yhPvQr9zj-126">
          <mxGeometry relative="1" as="geometry" />
        </mxCell>
        <mxCell id="KCeUuFtNJj_yhPvQr9zj-136" style="edgeStyle=orthogonalEdgeStyle;rounded=0;orthogonalLoop=1;jettySize=auto;html=1;" edge="1" parent="1" source="KCeUuFtNJj_yhPvQr9zj-137">
          <mxGeometry relative="1" as="geometry">
            <mxPoint x="382.75" y="6280" as="targetPoint" />
          </mxGeometry>
        </mxCell>
        <mxCell id="KCeUuFtNJj_yhPvQr9zj-137" value="Metrics" style="shape=process;whiteSpace=wrap;html=1;backgroundOutline=1;fillColor=#dae8fc;strokeColor=#6c8ebf;" vertex="1" parent="1">
          <mxGeometry x="30" y="6175" width="120" height="60" as="geometry" />
        </mxCell>
        <mxCell id="KCeUuFtNJj_yhPvQr9zj-138" value="Alerts" style="shape=cylinder3;whiteSpace=wrap;html=1;boundedLbl=1;backgroundOutline=1;size=15;fillColor=#ffe6cc;strokeColor=#d79b00;" vertex="1" parent="1">
          <mxGeometry x="10" y="5975" width="60" height="80" as="geometry" />
        </mxCell>
        <mxCell id="KCeUuFtNJj_yhPvQr9zj-139" value="Server&amp;nbsp;" style="text;html=1;align=center;verticalAlign=middle;whiteSpace=wrap;rounded=0;" vertex="1" parent="1">
          <mxGeometry y="6305" width="60" height="30" as="geometry" />
        </mxCell>
        <mxCell id="KCeUuFtNJj_yhPvQr9zj-140" value="port (9090)" style="text;html=1;align=center;verticalAlign=middle;whiteSpace=wrap;rounded=0;" vertex="1" parent="1">
          <mxGeometry x="568" y="6045" width="60" height="30" as="geometry" />
        </mxCell>
        <mxCell id="KCeUuFtNJj_yhPvQr9zj-141" value="" style="shape=flexArrow;endArrow=classic;html=1;rounded=0;entryX=0;entryY=0.75;entryDx=0;entryDy=0;fillColor=#d5e8d4;strokeColor=#82b366;" edge="1" parent="1" target="KCeUuFtNJj_yhPvQr9zj-140">
          <mxGeometry width="50" height="50" relative="1" as="geometry">
            <mxPoint x="420" y="6080" as="sourcePoint" />
            <mxPoint x="470" y="6030" as="targetPoint" />
          </mxGeometry>
        </mxCell>
        <mxCell id="KCeUuFtNJj_yhPvQr9zj-142" value="Node Exporter (9100)" style="text;html=1;align=center;verticalAlign=middle;whiteSpace=wrap;rounded=0;" vertex="1" parent="1">
          <mxGeometry x="370" y="6260" width="60" height="30" as="geometry" />
        </mxCell>
        <mxCell id="KCeUuFtNJj_yhPvQr9zj-143" value="Reload prometheus" style="text;html=1;align=center;verticalAlign=middle;whiteSpace=wrap;rounded=0;" vertex="1" parent="1">
          <mxGeometry x="480" y="6145" width="60" height="30" as="geometry" />
        </mxCell>
        <mxCell id="KCeUuFtNJj_yhPvQr9zj-144" value="" style="shape=flexArrow;endArrow=classic;html=1;rounded=0;fillColor=#d5e8d4;strokeColor=#82b366;" edge="1" parent="1">
          <mxGeometry width="50" height="50" relative="1" as="geometry">
            <mxPoint x="320" y="5920" as="sourcePoint" />
            <mxPoint x="390" y="5890" as="targetPoint" />
          </mxGeometry>
        </mxCell>
        <mxCell id="KCeUuFtNJj_yhPvQr9zj-145" value="Port (3000)" style="text;html=1;align=center;verticalAlign=middle;whiteSpace=wrap;rounded=0;" vertex="1" parent="1">
          <mxGeometry x="395" y="5880" width="60" height="30" as="geometry" />
        </mxCell>
        <mxCell id="KCeUuFtNJj_yhPvQr9zj-146" value="promtool check config /etc/prometheus/prometheus.yml&lt;div&gt;curl -X POST http://localhost:9090/-/reload&lt;br&gt;&lt;/div&gt;" style="shape=note;whiteSpace=wrap;html=1;backgroundOutline=1;darkOpacity=0.05;" vertex="1" parent="1">
          <mxGeometry x="609.5" y="6092.5" width="312" height="225" as="geometry" />
        </mxCell>
        <mxCell id="KCeUuFtNJj_yhPvQr9zj-147" value="Exporters" style="shape=note;whiteSpace=wrap;html=1;backgroundOutline=1;darkOpacity=0.05;" vertex="1" parent="1">
          <mxGeometry x="256.75" y="6305" width="214" height="100" as="geometry" />
        </mxCell>
      </root>
    </mxGraphModel>
  </diagram>
</mxfile>
